<?xml version="1.0" encoding="UTF-8" standalone="no"?>
<!DOCTYPE svg PUBLIC "-//W3C//DTD SVG 1.1//EN"
 "http://www.w3.org/Graphics/SVG/1.1/DTD/svg11.dtd">
<!-- Generated by graphviz version 2.44.1 (20200629.0846)
 -->
<!-- Title: SimWorkflow Pages: 1 -->
<svg width="2204pt" height="1277pt"
 viewBox="0.00 0.00 2204.02 1277.35" xmlns="http://www.w3.org/2000/svg" xmlns:xlink="http://www.w3.org/1999/xlink">
<g id="graph0" class="graph" transform="scale(1 1) rotate(0) translate(4 1273.35)">
<title>SimWorkflow</title>
<polygon fill="white" stroke="transparent" points="-4,4 -4,-1273.35 2200.02,-1273.35 2200.02,4 -4,4"/>
<text text-anchor="middle" x="1098.01" y="-1236.55" font-family="Helvetica,sans-Serif" font-size="36.00">Mu2e Simulation Workflow</text>
<g id="clust1" class="cluster">
<title>clusterLegend</title>
<polygon fill="none" stroke="red" points="8,-955.76 8,-1213.35 146,-1213.35 146,-955.76 8,-955.76"/>
<text text-anchor="middle" x="77" y="-1180.55" font-family="Helvetica,sans-Serif" font-size="36.00">Legend</text>
</g>
<!-- Job -->
<g id="node1" class="node">
<title>Job</title>
<polygon fill="none" stroke="blue" points="108,-1012.76 40,-1012.76 40,-963.76 108,-963.76 108,-1012.76"/>
<text text-anchor="start" x="63" y="-995.06" font-family="Times,serif" font-weight="bold" font-size="14.00">Job</text>
<text text-anchor="start" x="51" y="-974.06" font-family="Times,serif" font-size="14.00" fill="darkgreen">fhicl file</text>
</g>
<!-- Dataset -->
<g id="node2" class="node">
<title>Dataset</title>
<ellipse fill="none" stroke="lightblue" cx="77" cy="-1122.7" rx="60.62" ry="34.8"/>
<text text-anchor="start" x="55" y="-1129.5" font-family="Times,serif" font-weight="bold" font-size="14.00">Dataset</text>
<text text-anchor="start" x="45" y="-1108.5" font-family="Times,serif" font-size="14.00" fill="red">SAM name</text>
</g>
<!-- Dataset&#45;&gt;Job -->
<g id="edge1" class="edge">
<title>Dataset&#45;&gt;Job</title>
<path fill="none" stroke="black" stroke-dasharray="5,2" d="M52.65,-1090.92C48.68,-1084.37 45.16,-1077.25 43,-1070.05 38.19,-1054 43.46,-1036.59 50.94,-1022.06"/>
<polygon fill="black" stroke="black" points="54.2,-1023.4 56.09,-1012.97 48.11,-1019.95 54.2,-1023.4"/>
<text text-anchor="middle" x="60" y="-1058.85" font-family="Times,serif" font-size="14.00">Mixin</text>
</g>
<!-- Dataset&#45;&gt;Job -->
<g id="edge2" class="edge">
<title>Dataset&#45;&gt;Job</title>
<path fill="none" stroke="black" d="M77.3,-1087.79C77.31,-1077.29 77.24,-1065.69 77,-1055.05 76.76,-1044.7 76.32,-1033.44 75.84,-1023.21"/>
<polygon fill="black" stroke="black" points="79.33,-1022.82 75.34,-1013 72.34,-1023.16 79.33,-1022.82"/>
<text text-anchor="middle" x="93" y="-1058.85" font-family="Times,serif" font-size="14.00">Main</text>
</g>
<!-- POT -->
<g id="node3" class="node">
<title>POT</title>
<polygon fill="none" stroke="blue" points="599.5,-1147.2 468.5,-1147.2 468.5,-1098.2 599.5,-1098.2 599.5,-1147.2"/>
<text text-anchor="start" x="480" y="-1129.5" font-family="Times,serif" font-weight="bold" font-size="14.00">Protons On Target</text>
<text text-anchor="start" x="480" y="-1108.5" font-family="Times,serif" font-size="14.00" fill="darkgreen">beam/POT.fcl</text>
</g>
<!-- Beam -->
<g id="node4" class="node">
<title>Beam</title>
<ellipse fill="none" stroke="lightblue" cx="833" cy="-988.26" rx="106.55" ry="48.58"/>
<text text-anchor="start" x="795" y="-1005.06" font-family="Times,serif" font-weight="bold" font-size="14.00">Meson Beam</text>
<text text-anchor="start" x="769" y="-984.06" font-family="Times,serif" font-size="14.00" fill="red">sim.mu2e.MuBeam.art</text>
<text text-anchor="start" x="769" y="-964.06" font-family="Times,serif" font-size="14.00" fill="yellow">sim.mu2e.PiBeam.art</text>
</g>
<!-- POT&#45;&gt;Beam -->
<g id="edge4" class="edge">
<title>POT&#45;&gt;Beam</title>
<path fill="none" stroke="black" d="M599.65,-1115.36C666.44,-1107.76 764.25,-1093.08 794,-1070.05 802.31,-1063.62 808.94,-1054.97 814.22,-1045.72"/>
<polygon fill="black" stroke="black" points="817.39,-1047.21 818.86,-1036.72 811.16,-1044 817.39,-1047.21"/>
<text text-anchor="middle" x="827" y="-1058.85" font-family="Times,serif" font-size="14.00">At TS5</text>
</g>
<!-- Flash -->
<g id="node5" class="node">
<title>Flash</title>
<ellipse fill="none" stroke="lightblue" cx="268" cy="-988.26" rx="113.69" ry="34.8"/>
<text text-anchor="start" x="252.5" y="-995.06" font-family="Times,serif" font-weight="bold" font-size="14.00">Flash</text>
<text text-anchor="start" x="199" y="-974.06" font-family="Times,serif" font-size="14.00" fill="red">sim.mu2e.FlashBeam.art</text>
</g>
<!-- POT&#45;&gt;Flash -->
<g id="edge3" class="edge">
<title>POT&#45;&gt;Flash</title>
<path fill="none" stroke="black" d="M468.47,-1104.75C440.15,-1096.19 407.12,-1084.53 379,-1070.05 356.19,-1058.31 332.94,-1042.16 313.65,-1027.39"/>
<polygon fill="black" stroke="black" points="315.69,-1024.53 305.64,-1021.16 311.39,-1030.06 315.69,-1024.53"/>
<text text-anchor="middle" x="454.5" y="-1058.85" font-family="Times,serif" font-size="14.00">At TS5 + CRV, t &gt; 300? ns</text>
</g>
<!-- EarlyFlash -->
<g id="node6" class="node">
<title>EarlyFlash</title>
<ellipse fill="none" stroke="lightblue" cx="534" cy="-988.26" rx="134.2" ry="34.8"/>
<text text-anchor="start" x="500" y="-995.06" font-family="Times,serif" font-weight="bold" font-size="14.00">Early Flash</text>
<text text-anchor="start" x="450" y="-974.06" font-family="Times,serif" font-size="14.00" fill="red">sim.mu2e.EarlyFlashBeam.art</text>
</g>
<!-- POT&#45;&gt;EarlyFlash -->
<g id="edge5" class="edge">
<title>POT&#45;&gt;EarlyFlash</title>
<path fill="none" stroke="black" d="M534,-1098.02C534,-1080.12 534,-1055.02 534,-1033.45"/>
<polygon fill="black" stroke="black" points="537.5,-1033.18 534,-1023.18 530.5,-1033.18 537.5,-1033.18"/>
<text text-anchor="start" x="534" y="-1059.85" font-family="Times,serif" font-size="14.00"> At TS5 + CRV, 300 &gt; t &gt; 0 ns, prescale 10</text>
<text text-anchor="start" x="773" y="-1059.85" font-family="Times,serif" baseline-shift="super" font-size="14.00">&#45;4</text>
<text text-anchor="start" x="783" y="-1059.85" font-family="Times,serif" font-size="14.00">?</text>
</g>
<!-- StopPositionResampling -->
<g id="node9" class="node">
<title>StopPositionResampling</title>
<polygon fill="none" stroke="blue" points="1068.5,-880.47 911.5,-880.47 911.5,-831.47 1068.5,-831.47 1068.5,-880.47"/>
<text text-anchor="start" x="943" y="-862.77" font-family="Times,serif" font-weight="bold" font-size="14.00">Particle Stopper</text>
<text text-anchor="start" x="923" y="-841.77" font-family="Times,serif" font-size="14.00" fill="darkgreen">beam/ParticleStopper.fcl</text>
</g>
<!-- Beam&#45;&gt;StopPositionResampling -->
<g id="edge6" class="edge">
<title>Beam&#45;&gt;StopPositionResampling</title>
<path fill="none" stroke="black" d="M883.97,-944.96C906.74,-926.07 933.04,-904.24 953.75,-887.05"/>
<polygon fill="black" stroke="black" points="956.22,-889.55 961.68,-880.47 951.75,-884.16 956.22,-889.55"/>
<text text-anchor="start" x="930" y="-911.27" font-family="Times,serif" font-size="14.00">resample 10</text>
<text text-anchor="start" x="997" y="-911.27" font-family="Times,serif" baseline-shift="super" font-size="14.00">+4</text>
<text text-anchor="start" x="1010" y="-911.27" font-family="Times,serif" font-size="14.00">?</text>
</g>
<!-- FlashResampling -->
<g id="node8" class="node">
<title>FlashResampling</title>
<polygon fill="none" stroke="blue" points="350.5,-880.47 185.5,-880.47 185.5,-831.47 350.5,-831.47 350.5,-880.47"/>
<text text-anchor="start" x="216" y="-862.77" font-family="Times,serif" font-weight="bold" font-size="14.00">Flash Resampling</text>
<text text-anchor="start" x="197" y="-841.77" font-family="Times,serif" font-size="14.00" fill="darkgreen">pileup/FlashResampler.fcl</text>
</g>
<!-- Flash&#45;&gt;FlashResampling -->
<g id="edge7" class="edge">
<title>Flash&#45;&gt;FlashResampling</title>
<path fill="none" stroke="black" d="M268,-953.37C268,-934.16 268,-910.19 268,-890.96"/>
<polygon fill="black" stroke="black" points="271.5,-890.83 268,-880.83 264.5,-890.83 271.5,-890.83"/>
<text text-anchor="start" x="268" y="-911.27" font-family="Times,serif" font-size="14.00">t &gt; 450 ns, resample 10</text>
<text text-anchor="start" x="398" y="-911.27" font-family="Times,serif" baseline-shift="super" font-size="14.00">+4</text>
<text text-anchor="start" x="411" y="-911.27" font-family="Times,serif" font-size="14.00">?</text>
</g>
<!-- EarlyFlashResampling -->
<g id="node7" class="node">
<title>EarlyFlashResampling</title>
<polygon fill="none" stroke="blue" points="612,-880.47 418,-880.47 418,-831.47 612,-831.47 612,-880.47"/>
<text text-anchor="start" x="444.5" y="-862.77" font-family="Times,serif" font-weight="bold" font-size="14.00">Early Flash Resampling</text>
<text text-anchor="start" x="429" y="-841.77" font-family="Times,serif" font-size="14.00" fill="darkgreen">pileup/EarlyFlashResampler.fcl</text>
</g>
<!-- EarlyFlash&#45;&gt;EarlyFlashResampling -->
<g id="edge8" class="edge">
<title>EarlyFlash&#45;&gt;EarlyFlashResampling</title>
<path fill="none" stroke="black" d="M529.06,-953.37C526.26,-934.16 522.76,-910.19 519.96,-890.96"/>
<polygon fill="black" stroke="black" points="523.39,-890.22 518.48,-880.83 516.46,-891.23 523.39,-890.22"/>
<text text-anchor="start" x="523" y="-911.27" font-family="Times,serif" font-size="14.00">tracker only, resample 10</text>
<text text-anchor="start" x="662" y="-911.27" font-family="Times,serif" baseline-shift="super" font-size="14.00">+4</text>
<text text-anchor="start" x="675" y="-911.27" font-family="Times,serif" font-size="14.00">?</text>
</g>
<!-- EarlyFlashPileup -->
<g id="node10" class="node">
<title>EarlyFlashPileup</title>
<ellipse fill="none" stroke="lightblue" cx="482" cy="-493.24" rx="108.38" ry="34.8"/>
<text text-anchor="start" x="428" y="-500.04" font-family="Times,serif" font-weight="bold" font-size="14.00">Early Flash Pileup</text>
<text text-anchor="start" x="417" y="-479.04" font-family="Times,serif" font-size="14.00" fill="red">dts.mu2e.EarlyFlash.art</text>
</g>
<!-- EarlyFlashResampling&#45;&gt;EarlyFlashPileup -->
<g id="edge10" class="edge">
<title>EarlyFlashResampling&#45;&gt;EarlyFlashPileup</title>
<path fill="none" stroke="black" d="M512.83,-831.3C507.39,-771.8 493.07,-615.22 486.03,-538.24"/>
<polygon fill="black" stroke="black" points="489.48,-537.56 485.08,-527.92 482.51,-538.2 489.48,-537.56"/>
<text text-anchor="start" x="498" y="-659.69" font-family="Times,serif" font-size="14.00">selected straws</text>
</g>
<!-- FlashPileup -->
<g id="node11" class="node">
<title>FlashPileup</title>
<ellipse fill="none" stroke="lightblue" cx="268" cy="-493.24" rx="87.86" ry="34.8"/>
<text text-anchor="start" x="231.5" y="-500.04" font-family="Times,serif" font-weight="bold" font-size="14.00">Flash Pileup</text>
<text text-anchor="start" x="217" y="-479.04" font-family="Times,serif" font-size="14.00" fill="red">dts.mu2e.Flash.art</text>
</g>
<!-- FlashResampling&#45;&gt;FlashPileup -->
<g id="edge9" class="edge">
<title>FlashResampling&#45;&gt;FlashPileup</title>
<path fill="none" stroke="black" d="M268,-831.3C268,-771.8 268,-615.22 268,-538.24"/>
<polygon fill="black" stroke="black" points="271.5,-537.92 268,-527.92 264.5,-537.92 271.5,-537.92"/>
</g>
<!-- TargetStops -->
<g id="node12" class="node">
<title>TargetStops</title>
<ellipse fill="none" stroke="lightblue" cx="1023" cy="-737.68" rx="130.22" ry="48.58"/>
<text text-anchor="start" x="986" y="-754.48" font-family="Times,serif" font-weight="bold" font-size="14.00">Target Stops</text>
<text text-anchor="start" x="942" y="-733.48" font-family="Times,serif" font-size="14.00" fill="red">sim.mu2e.MuTargetStops.art</text>
<text text-anchor="start" x="942" y="-713.48" font-family="Times,serif" font-size="14.00" fill="yellow">sim.mu2e.PiTargetStops.art</text>
</g>
<!-- StopPositionResampling&#45;&gt;TargetStops -->
<g id="edge11" class="edge">
<title>StopPositionResampling&#45;&gt;TargetStops</title>
<path fill="none" stroke="black" d="M996.68,-831.44C999.56,-821.28 1003.07,-808.9 1006.58,-796.54"/>
<polygon fill="black" stroke="black" points="1010.02,-797.25 1009.38,-786.68 1003.28,-795.34 1010.02,-797.25"/>
</g>
<!-- OutOfTargetStops -->
<g id="node13" class="node">
<title>OutOfTargetStops</title>
<ellipse fill="none" stroke="lightblue" cx="743" cy="-737.68" rx="131.54" ry="34.8"/>
<text text-anchor="start" x="661" y="-744.48" font-family="Times,serif" font-weight="bold" font-size="14.00">Out Of Target (OOT) Stops</text>
<text text-anchor="start" x="661" y="-723.48" font-family="Times,serif" font-size="14.00" fill="red">sim.mu2e.MuOOTStops.art</text>
</g>
<!-- StopPositionResampling&#45;&gt;OutOfTargetStops -->
<g id="edge12" class="edge">
<title>StopPositionResampling&#45;&gt;OutOfTargetStops</title>
<path fill="none" stroke="black" d="M940.02,-831.44C904.05,-814.5 855.01,-791.42 814.85,-772.51"/>
<polygon fill="black" stroke="black" points="816.18,-769.27 805.64,-768.17 813.2,-775.6 816.18,-769.27"/>
</g>
<!-- IPAStops -->
<g id="node14" class="node">
<title>IPAStops</title>
<ellipse fill="none" stroke="lightblue" cx="1353" cy="-737.68" rx="106.55" ry="34.8"/>
<text text-anchor="start" x="1324.5" y="-744.48" font-family="Times,serif" font-weight="bold" font-size="14.00">IPA Stops</text>
<text text-anchor="start" x="1289" y="-723.48" font-family="Times,serif" font-size="14.00" fill="red">sim.mu2e.IPAStops.art</text>
</g>
<!-- StopPositionResampling&#45;&gt;IPAStops -->
<g id="edge13" class="edge">
<title>StopPositionResampling&#45;&gt;IPAStops</title>
<path fill="none" stroke="black" d="M1063.46,-831.44C1122.85,-812.41 1206.5,-785.61 1268.63,-765.71"/>
<polygon fill="black" stroke="black" points="1269.95,-768.96 1278.4,-762.58 1267.81,-762.29 1269.95,-768.96"/>
</g>
<!-- MixDigitization -->
<g id="node29" class="node">
<title>MixDigitization</title>
<polygon fill="none" stroke="blue" points="1108.5,-389.59 905.5,-389.59 905.5,-340.59 1108.5,-340.59 1108.5,-389.59"/>
<text text-anchor="start" x="917" y="-371.89" font-family="Times,serif" font-weight="bold" font-size="14.00"> Primary + Pileup Digitization </text>
<text text-anchor="start" x="917" y="-350.89" font-family="Times,serif" font-size="14.00" fill="darkgreen">mixing/mix.fcl</text>
</g>
<!-- EarlyFlashPileup&#45;&gt;MixDigitization -->
<g id="edge32" class="edge">
<title>EarlyFlashPileup&#45;&gt;MixDigitization</title>
<path fill="none" stroke="black" stroke-dasharray="5,2" d="M550.45,-466.33C566.57,-460.72 583.78,-455.12 600,-450.59 698.69,-423.07 813.1,-400.08 895.44,-385.07"/>
<polygon fill="black" stroke="black" points="896.1,-388.5 905.32,-383.28 894.85,-381.62 896.1,-388.5"/>
<text text-anchor="start" x="733" y="-422.39" font-family="Times,serif" font-size="14.00">resample 10</text>
<text text-anchor="start" x="800" y="-422.39" font-family="Times,serif" baseline-shift="super" font-size="14.00">+4</text>
<text text-anchor="start" x="813" y="-422.39" font-family="Times,serif" font-size="14.00">?</text>
</g>
<!-- FlashPileup&#45;&gt;MixDigitization -->
<g id="edge33" class="edge">
<title>FlashPileup&#45;&gt;MixDigitization</title>
<path fill="none" stroke="black" stroke-dasharray="5,2" d="M322.51,-465.94C336.14,-460.18 350.9,-454.61 365,-450.59 546.21,-399.03 765.29,-378.76 895.01,-370.92"/>
<polygon fill="black" stroke="black" points="895.57,-374.39 905.35,-370.31 895.16,-367.4 895.57,-374.39"/>
<text text-anchor="start" x="502" y="-422.39" font-family="Times,serif" font-size="14.00">resample 10</text>
<text text-anchor="start" x="569" y="-422.39" font-family="Times,serif" baseline-shift="super" font-size="14.00">+4</text>
<text text-anchor="start" x="582" y="-422.39" font-family="Times,serif" font-size="14.00">?</text>
</g>
<!-- PrimaryMuonTerm -->
<g id="node15" class="node">
<title>PrimaryMuonTerm</title>
<polygon fill="none" stroke="blue" points="1461,-629.89 1119,-629.89 1119,-580.89 1461,-580.89 1461,-629.89"/>
<polygon fill="none" stroke="blue" points="1465,-633.89 1115,-633.89 1115,-576.89 1465,-576.89 1465,-633.89"/>
<polygon fill="none" stroke="blue" points="1469,-637.89 1111,-637.89 1111,-572.89 1469,-572.89 1469,-637.89"/>
<text text-anchor="start" x="1130" y="-612.19" font-family="Times,serif" font-weight="bold" font-size="14.00">μ on Al to X ∈ [Ce</text>
<text text-anchor="start" x="1242" y="-612.19" font-family="Times,serif" font-weight="bold" baseline-shift="super" font-size="14.00">&#45;</text>
<text text-anchor="start" x="1246" y="-612.19" font-family="Times,serif" font-weight="bold" font-size="14.00">, Ce</text>
<text text-anchor="start" x="1270" y="-612.19" font-family="Times,serif" font-weight="bold" baseline-shift="super" font-size="14.00">+</text>
<text text-anchor="start" x="1277" y="-612.19" font-family="Times,serif" font-weight="bold" font-size="14.00">, DIO Tail, Internal RPC, ...] </text>
<text text-anchor="start" x="1130" y="-591.19" font-family="Times,serif" font-size="14.00" fill="darkgreen">primary/X.fcl, X ∈ [CeMinus, CePlus, DIOTail, ...]</text>
</g>
<!-- TargetStops&#45;&gt;PrimaryMuonTerm -->
<g id="edge14" class="edge">
<title>TargetStops&#45;&gt;PrimaryMuonTerm</title>
<path fill="none" stroke="black" d="M1101.3,-698.47C1137.47,-680.82 1180.18,-659.98 1215.82,-642.59"/>
<polygon fill="black" stroke="black" points="1217.74,-645.54 1225.2,-638.01 1214.67,-639.25 1217.74,-645.54"/>
<text text-anchor="start" x="1188" y="-660.69" font-family="Times,serif" font-size="14.00">resample 10</text>
<text text-anchor="start" x="1255" y="-660.69" font-family="Times,serif" baseline-shift="super" font-size="14.00">+3</text>
<text text-anchor="start" x="1268" y="-660.69" font-family="Times,serif" font-size="14.00">?</text>
</g>
<!-- PileupMuonTerm -->
<g id="node16" class="node">
<title>PileupMuonTerm</title>
<polygon fill="none" stroke="blue" points="1089.5,-629.89 916.5,-629.89 916.5,-580.89 1089.5,-580.89 1089.5,-629.89"/>
<text text-anchor="start" x="928" y="-612.19" font-family="Times,serif" font-weight="bold" font-size="14.00">μ to X ∈ [P, D, N,γ, e ν] &#160;</text>
<text text-anchor="start" x="928" y="-591.19" font-family="Times,serif" font-size="14.00" fill="darkgreen">pileup/mustop.fcl</text>
</g>
<!-- TargetStops&#45;&gt;PileupMuonTerm -->
<g id="edge15" class="edge">
<title>TargetStops&#45;&gt;PileupMuonTerm</title>
<path fill="none" stroke="black" d="M1015.67,-688.9C1013.19,-672.77 1010.48,-655.11 1008.2,-640.28"/>
<polygon fill="black" stroke="black" points="1011.61,-639.4 1006.63,-630.05 1004.69,-640.46 1011.61,-639.4"/>
<text text-anchor="start" x="1012" y="-660.69" font-family="Times,serif" font-size="14.00">resample 10</text>
<text text-anchor="start" x="1079" y="-660.69" font-family="Times,serif" baseline-shift="super" font-size="14.00">+3</text>
<text text-anchor="start" x="1092" y="-660.69" font-family="Times,serif" font-size="14.00">?</text>
</g>
<!-- OutOfTargetMuonTerm -->
<g id="node17" class="node">
<title>OutOfTargetMuonTerm</title>
<polygon fill="none" stroke="blue" points="816,-629.89 670,-629.89 670,-580.89 816,-580.89 816,-629.89"/>
<text text-anchor="start" x="687" y="-612.19" font-family="Times,serif" font-weight="bold" font-size="14.00">OOT μ decay (G4)</text>
<text text-anchor="start" x="681" y="-591.19" font-family="Times,serif" font-size="14.00" fill="darkgreen">pileup/OOTmustop.fcl</text>
</g>
<!-- OutOfTargetStops&#45;&gt;OutOfTargetMuonTerm -->
<g id="edge16" class="edge">
<title>OutOfTargetStops&#45;&gt;OutOfTargetMuonTerm</title>
<path fill="none" stroke="black" d="M743,-702.79C743,-683.57 743,-659.61 743,-640.38"/>
<polygon fill="black" stroke="black" points="746.5,-640.25 743,-630.25 739.5,-640.25 746.5,-640.25"/>
<text text-anchor="start" x="743" y="-660.69" font-family="Times,serif" font-size="14.00">resample 10</text>
<text text-anchor="start" x="810" y="-660.69" font-family="Times,serif" baseline-shift="super" font-size="14.00">+3</text>
<text text-anchor="start" x="823" y="-660.69" font-family="Times,serif" font-size="14.00">?</text>
</g>
<!-- IPAMuonTerm -->
<g id="node18" class="node">
<title>IPAMuonTerm</title>
<polygon fill="none" stroke="blue" points="1663.5,-629.89 1504.5,-629.89 1504.5,-580.89 1663.5,-580.89 1663.5,-629.89"/>
<text text-anchor="start" x="1516" y="-612.19" font-family="Times,serif" font-weight="bold" font-size="14.00">IPA Muon Termination</text>
<text text-anchor="start" x="1516" y="-591.19" font-family="Times,serif" font-size="14.00" fill="darkgreen">primary/IPAmustop.fcl</text>
</g>
<!-- IPAStops&#45;&gt;IPAMuonTerm -->
<g id="edge17" class="edge">
<title>IPAStops&#45;&gt;IPAMuonTerm</title>
<path fill="none" stroke="black" d="M1405.13,-707.28C1443.44,-685.67 1495.23,-656.46 1533.22,-635.03"/>
<polygon fill="black" stroke="black" points="1535.09,-638 1542.08,-630.04 1531.65,-631.9 1535.09,-638"/>
<text text-anchor="start" x="1495" y="-660.69" font-family="Times,serif" font-size="14.00">resample 10</text>
<text text-anchor="start" x="1562" y="-660.69" font-family="Times,serif" baseline-shift="super" font-size="14.00">+3</text>
<text text-anchor="start" x="1575" y="-660.69" font-family="Times,serif" font-size="14.00">?</text>
</g>
<!-- MuonPrimary -->
<g id="node26" class="node">
<title>MuonPrimary</title>
<ellipse fill="none" stroke="lightblue" cx="1314" cy="-493.24" rx="188.6" ry="34.77"/>
<ellipse fill="none" stroke="lightblue" cx="1314" cy="-493.24" rx="192.6" ry="38.78"/>
<ellipse fill="none" stroke="lightblue" cx="1314" cy="-493.24" rx="196.6" ry="42.8"/>
<text text-anchor="start" x="1249" y="-500.04" font-family="Times,serif" font-weight="bold" font-size="14.00">Target Muon Primary</text>
<text text-anchor="start" x="1192" y="-479.04" font-family="Times,serif" font-size="14.00" fill="red">dts.mu2e.X.art, X ∈[CeMinus, CePlus, ...] </text>
</g>
<!-- PrimaryMuonTerm&#45;&gt;MuonPrimary -->
<g id="edge23" class="edge">
<title>PrimaryMuonTerm&#45;&gt;MuonPrimary</title>
<path fill="none" stroke="black" d="M1296.88,-572.83C1298.71,-564.42 1300.74,-555.12 1302.73,-545.94"/>
<polygon fill="black" stroke="black" points="1306.17,-546.6 1304.88,-536.08 1299.33,-545.11 1306.17,-546.6"/>
</g>
<!-- TargetMuonPileup -->
<g id="node27" class="node">
<title>TargetMuonPileup</title>
<ellipse fill="none" stroke="lightblue" cx="997" cy="-493.24" rx="101.65" ry="34.8"/>
<text text-anchor="start" x="936" y="-500.04" font-family="Times,serif" font-weight="bold" font-size="14.00">Target Muon Pileup </text>
<text text-anchor="start" x="936" y="-479.04" font-family="Times,serif" font-size="14.00" fill="red">dts.mu2e.mu.art</text>
</g>
<!-- PileupMuonTerm&#45;&gt;TargetMuonPileup -->
<g id="edge25" class="edge">
<title>PileupMuonTerm&#45;&gt;TargetMuonPileup</title>
<path fill="none" stroke="black" d="M1001.71,-580.76C1001.04,-568.45 1000.2,-552.99 999.41,-538.55"/>
<polygon fill="black" stroke="black" points="1002.89,-538.08 998.85,-528.28 995.9,-538.46 1002.89,-538.08"/>
</g>
<!-- OutOfTargetMuonPileup -->
<g id="node28" class="node">
<title>OutOfTargetMuonPileup</title>
<ellipse fill="none" stroke="lightblue" cx="743" cy="-493.24" rx="134.2" ry="34.8"/>
<text text-anchor="start" x="659" y="-500.04" font-family="Times,serif" font-weight="bold" font-size="14.00">Out Of Target Muon Pileup </text>
<text text-anchor="start" x="659" y="-479.04" font-family="Times,serif" font-size="14.00" fill="red">dts.mu2e.ootmu.art</text>
</g>
<!-- OutOfTargetMuonTerm&#45;&gt;OutOfTargetMuonPileup -->
<g id="edge26" class="edge">
<title>OutOfTargetMuonTerm&#45;&gt;OutOfTargetMuonPileup</title>
<path fill="none" stroke="black" d="M743,-580.76C743,-568.45 743,-552.99 743,-538.55"/>
<polygon fill="black" stroke="black" points="746.5,-538.28 743,-528.28 739.5,-538.28 746.5,-538.28"/>
</g>
<!-- IPAPrimary -->
<g id="node25" class="node">
<title>IPAPrimary</title>
<ellipse fill="none" stroke="lightblue" cx="1626" cy="-493.24" rx="97.66" ry="34.8"/>
<text text-anchor="start" x="1568.5" y="-500.04" font-family="Times,serif" font-weight="bold" font-size="14.00">IPA Muon Primary</text>
<text text-anchor="start" x="1568" y="-479.04" font-family="Times,serif" font-size="14.00" fill="red">dts.mu2e.IPAmu.art </text>
</g>
<!-- IPAMuonTerm&#45;&gt;IPAPrimary -->
<g id="edge24" class="edge">
<title>IPAMuonTerm&#45;&gt;IPAPrimary</title>
<path fill="none" stroke="black" d="M1593.01,-580.76C1597.83,-568.11 1603.93,-552.12 1609.56,-537.35"/>
<polygon fill="black" stroke="black" points="1612.89,-538.45 1613.18,-527.86 1606.35,-535.96 1612.89,-538.45"/>
</g>
<!-- CosmicStage0 -->
<g id="node19" class="node">
<title>CosmicStage0</title>
<polygon fill="none" stroke="blue" points="2110.5,-1147.2 1763.5,-1147.2 1763.5,-1098.2 2110.5,-1098.2 2110.5,-1147.2"/>
<text text-anchor="start" x="1873" y="-1129.5" font-family="Times,serif" font-weight="bold" font-size="14.00">CORSIKA executable</text>
<text text-anchor="start" x="1775" y="-1108.5" font-family="Times,serif" font-size="14.00">./corsika77400Linux_QGSJET_fluka &lt; input_configuration</text>
</g>
<!-- CORSIKAOutput -->
<g id="node20" class="node">
<title>CORSIKAOutput</title>
<ellipse fill="none" stroke="lightblue" cx="1937" cy="-988.26" rx="114.6" ry="34.8"/>
<text text-anchor="start" x="1879.5" y="-995.06" font-family="Times,serif" font-weight="bold" font-size="14.00">CORSIKA binaries</text>
<text text-anchor="start" x="1867" y="-974.06" font-family="Times,serif" font-size="14.00" fill="red">sim.mu2e.CORSIKA.csk</text>
</g>
<!-- CosmicStage0&#45;&gt;CORSIKAOutput -->
<g id="edge18" class="edge">
<title>CosmicStage0&#45;&gt;CORSIKAOutput</title>
<path fill="none" stroke="black" d="M1937,-1098.02C1937,-1080.12 1937,-1055.02 1937,-1033.45"/>
<polygon fill="black" stroke="black" points="1940.5,-1033.18 1937,-1023.18 1933.5,-1033.18 1940.5,-1033.18"/>
</g>
<!-- CosmicGenerator -->
<g id="node21" class="node">
<title>CosmicGenerator</title>
<polygon fill="none" stroke="blue" points="2117.5,-880.47 1756.5,-880.47 1756.5,-831.47 2117.5,-831.47 2117.5,-880.47"/>
<polygon fill="none" stroke="blue" points="2121.5,-884.47 1752.5,-884.47 1752.5,-827.47 2121.5,-827.47 2121.5,-884.47"/>
<polygon fill="none" stroke="blue" points="2125.5,-888.47 1748.5,-888.47 1748.5,-823.47 2125.5,-823.47 2125.5,-888.47"/>
<text text-anchor="start" x="1845.5" y="-862.77" font-family="Times,serif" font-weight="bold" font-size="14.00">CORSIKA, CRY, ... generation</text>
<text text-anchor="start" x="1768" y="-841.77" font-family="Times,serif" font-size="14.00" fill="darkgreen">cosmic/cosmic_s1_dsstops_X.fcl, X ∈ [CORSIKA, CRY, ...]</text>
</g>
<!-- CORSIKAOutput&#45;&gt;CosmicGenerator -->
<g id="edge19" class="edge">
<title>CORSIKAOutput&#45;&gt;CosmicGenerator</title>
<path fill="none" stroke="black" d="M1937,-953.37C1937,-936.73 1937,-916.52 1937,-898.92"/>
<polygon fill="black" stroke="black" points="1940.5,-898.9 1937,-888.9 1933.5,-898.9 1940.5,-898.9"/>
</g>
<!-- CosmicStage1Output -->
<g id="node22" class="node">
<title>CosmicStage1Output</title>
<ellipse fill="none" stroke="lightblue" cx="1937" cy="-737.68" rx="251.05" ry="34.77"/>
<ellipse fill="none" stroke="lightblue" cx="1937" cy="-737.68" rx="255.05" ry="38.78"/>
<ellipse fill="none" stroke="lightblue" cx="1937" cy="-737.68" rx="259.05" ry="42.8"/>
<text text-anchor="start" x="1862" y="-744.48" font-family="Times,serif" font-weight="bold" font-size="14.00">Cosmic generation output</text>
<text text-anchor="start" x="1771" y="-723.48" font-family="Times,serif" font-size="14.00" fill="red">sim.mu2e.CosmicDSStopsX.art, X ∈ [CORSIKA, CRY, ...]</text>
</g>
<!-- CosmicGenerator&#45;&gt;CosmicStage1Output -->
<g id="edge20" class="edge">
<title>CosmicGenerator&#45;&gt;CosmicStage1Output</title>
<path fill="none" stroke="black" d="M1937,-823.19C1937,-813.1 1937,-801.67 1937,-790.54"/>
<polygon fill="black" stroke="black" points="1940.5,-790.46 1937,-780.46 1933.5,-790.46 1940.5,-790.46"/>
</g>
<!-- CosmicStage2 -->
<g id="node23" class="node">
<title>CosmicStage2</title>
<polygon fill="none" stroke="blue" points="2083.5,-629.89 1790.5,-629.89 1790.5,-580.89 2083.5,-580.89 2083.5,-629.89"/>
<polygon fill="none" stroke="blue" points="2087.5,-633.89 1786.5,-633.89 1786.5,-576.89 2087.5,-576.89 2087.5,-633.89"/>
<polygon fill="none" stroke="blue" points="2091.5,-637.89 1782.5,-637.89 1782.5,-572.89 2091.5,-572.89 2091.5,-637.89"/>
<text text-anchor="start" x="1881" y="-612.19" font-family="Times,serif" font-weight="bold" font-size="14.00">Cosmic resampling</text>
<text text-anchor="start" x="1802" y="-591.19" font-family="Times,serif" font-size="14.00" fill="darkgreen">cosmic/cosmic_s2_resampler_X.fcl, X ∈ [hi, lo]</text>
</g>
<!-- CosmicStage1Output&#45;&gt;CosmicStage2 -->
<g id="edge21" class="edge">
<title>CosmicStage1Output&#45;&gt;CosmicStage2</title>
<path fill="none" stroke="black" d="M1937,-694.74C1937,-679.89 1937,-663.2 1937,-648.35"/>
<polygon fill="black" stroke="black" points="1940.5,-647.92 1937,-637.92 1933.5,-647.92 1940.5,-647.92"/>
</g>
<!-- CosmicPrimary -->
<g id="node24" class="node">
<title>CosmicPrimary</title>
<ellipse fill="none" stroke="lightblue" cx="1937" cy="-493.24" rx="187.27" ry="34.77"/>
<ellipse fill="none" stroke="lightblue" cx="1937" cy="-493.24" rx="191.27" ry="38.78"/>
<ellipse fill="none" stroke="lightblue" cx="1937" cy="-493.24" rx="195.27" ry="42.8"/>
<text text-anchor="start" x="1875.5" y="-500.04" font-family="Times,serif" font-weight="bold" font-size="14.00">Cosmic Ray Primary</text>
<text text-anchor="start" x="1816" y="-479.04" font-family="Times,serif" font-size="14.00" fill="red">dts.mu2e.X.art, X ∈ [CORSIKA, CRY, ...] </text>
</g>
<!-- CosmicStage2&#45;&gt;CosmicPrimary -->
<g id="edge22" class="edge">
<title>CosmicStage2&#45;&gt;CosmicPrimary</title>
<path fill="none" stroke="black" d="M1937,-572.83C1937,-564.51 1937,-555.32 1937,-546.24"/>
<polygon fill="black" stroke="black" points="1940.5,-546.08 1937,-536.08 1933.5,-546.08 1940.5,-546.08"/>
</g>
<!-- CosmicPrimary&#45;&gt;MixDigitization -->
<g id="edge28" class="edge">
<title>CosmicPrimary&#45;&gt;MixDigitization</title>
<path fill="none" stroke="black" d="M1800.4,-462.68C1777.94,-458.3 1754.86,-454.09 1733,-450.59 1516.57,-415.97 1261.69,-389.6 1118.77,-376.11"/>
<polygon fill="black" stroke="black" points="1118.96,-372.61 1108.68,-375.16 1118.31,-379.58 1118.96,-372.61"/>
</g>
<!-- NomixDigitization -->
<g id="node30" class="node">
<title>NomixDigitization</title>
<polygon fill="none" stroke="blue" points="1694,-399.59 1510,-399.59 1510,-330.59 1694,-330.59 1694,-399.59"/>
<text text-anchor="start" x="1521" y="-381.89" font-family="Times,serif" font-weight="bold" font-size="14.00"> Primary Only Digitization </text>
<text text-anchor="start" x="1521" y="-360.89" font-family="Times,serif" font-size="14.00" fill="darkgreen">digitize/OnSpill.fcl</text>
<text text-anchor="start" x="1521" y="-340.89" font-family="Times,serif" font-size="14.00" fill="darkgreen">digitize/OffSpill.fcl</text>
</g>
<!-- CosmicPrimary&#45;&gt;NomixDigitization -->
<g id="edge35" class="edge">
<title>CosmicPrimary&#45;&gt;NomixDigitization</title>
<path fill="none" stroke="black" d="M1866.79,-453.24C1842.6,-440.78 1815.05,-427.63 1789,-417.59 1761.88,-407.14 1731.78,-397.88 1703.81,-390.2"/>
<polygon fill="black" stroke="black" points="1704.57,-386.78 1694.01,-387.54 1702.75,-393.53 1704.57,-386.78"/>
</g>
<!-- IPAPrimary&#45;&gt;MixDigitization -->
<g id="edge29" class="edge">
<title>IPAPrimary&#45;&gt;MixDigitization</title>
<path fill="none" stroke="black" d="M1565.65,-465.99C1550.92,-460.3 1535.06,-454.74 1520,-450.59 1384.27,-413.2 1223.51,-390.01 1118.6,-377.59"/>
<polygon fill="black" stroke="black" points="1118.96,-374.11 1108.62,-376.42 1118.15,-381.06 1118.96,-374.11"/>
</g>
<!-- IPAPrimary&#45;&gt;NomixDigitization -->
<g id="edge36" class="edge">
<title>IPAPrimary&#45;&gt;NomixDigitization</title>
<path fill="none" stroke="black" d="M1619.57,-458.44C1616.74,-443.59 1613.39,-425.96 1610.37,-410.11"/>
<polygon fill="black" stroke="black" points="1613.76,-409.16 1608.45,-399.99 1606.88,-410.47 1613.76,-409.16"/>
</g>
<!-- MuonPrimary&#45;&gt;MixDigitization -->
<g id="edge27" class="edge">
<title>MuonPrimary&#45;&gt;MixDigitization</title>
<path fill="none" stroke="black" d="M1223.96,-455.24C1176,-435.54 1118,-411.7 1074.04,-393.64"/>
<polygon fill="black" stroke="black" points="1075.18,-390.32 1064.6,-389.76 1072.52,-396.8 1075.18,-390.32"/>
</g>
<!-- MuonPrimary&#45;&gt;NomixDigitization -->
<g id="edge34" class="edge">
<title>MuonPrimary&#45;&gt;NomixDigitization</title>
<path fill="none" stroke="black" d="M1399.63,-454.73C1436.47,-438.6 1479.44,-419.78 1516.29,-403.64"/>
<polygon fill="black" stroke="black" points="1517.76,-406.81 1525.52,-399.59 1514.95,-400.4 1517.76,-406.81"/>
</g>
<!-- TargetMuonPileup&#45;&gt;MixDigitization -->
<g id="edge30" class="edge">
<title>TargetMuonPileup&#45;&gt;MixDigitization</title>
<path fill="none" stroke="black" stroke-dasharray="5,2" d="M999.68,-458.44C1001.12,-440.26 1002.89,-417.91 1004.33,-399.75"/>
<polygon fill="black" stroke="black" points="1007.83,-399.85 1005.14,-389.61 1000.86,-399.3 1007.83,-399.85"/>
<text text-anchor="start" x="1002" y="-422.39" font-family="Times,serif" font-size="14.00">resample 10</text>
<text text-anchor="start" x="1069" y="-422.39" font-family="Times,serif" baseline-shift="super" font-size="14.00">+4</text>
<text text-anchor="start" x="1082" y="-422.39" font-family="Times,serif" font-size="14.00">?</text>
</g>
<!-- OutOfTargetMuonPileup&#45;&gt;MixDigitization -->
<g id="edge31" class="edge">
<title>OutOfTargetMuonPileup&#45;&gt;MixDigitization</title>
<path fill="none" stroke="black" stroke-dasharray="5,2" d="M805.23,-462.51C848.55,-441.81 905.93,-414.39 948.42,-394.08"/>
<polygon fill="black" stroke="black" points="950.01,-397.2 957.53,-389.73 946.99,-390.89 950.01,-397.2"/>
<text text-anchor="start" x="898" y="-422.39" font-family="Times,serif" font-size="14.00">resample 10</text>
<text text-anchor="start" x="965" y="-422.39" font-family="Times,serif" baseline-shift="super" font-size="14.00">+4</text>
<text text-anchor="start" x="978" y="-422.39" font-family="Times,serif" font-size="14.00">?</text>
</g>
<!-- MixedDigis -->
<g id="node32" class="node">
<title>MixedDigis</title>
<ellipse fill="none" stroke="lightblue" cx="1117" cy="-250.94" rx="219.82" ry="34.77"/>
<ellipse fill="none" stroke="lightblue" cx="1117" cy="-250.94" rx="223.82" ry="38.78"/>
<ellipse fill="none" stroke="lightblue" cx="1117" cy="-250.94" rx="227.82" ry="42.8"/>
<text text-anchor="start" x="1082" y="-257.74" font-family="Times,serif" font-weight="bold" font-size="14.00">Mixed Digis</text>
<text text-anchor="start" x="973" y="-236.74" font-family="Times,serif" font-size="14.00" fill="red">dig.mu2e.XMix.art, X ∈ [CeMinus, CORSIKA, ...]</text>
</g>
<!-- MixDigitization&#45;&gt;MixedDigis -->
<g id="edge38" class="edge">
<title>MixDigitization&#45;&gt;MixedDigis</title>
<path fill="none" stroke="black" d="M1030.06,-340.58C1041.54,-328.88 1055.86,-314.28 1069.55,-300.32"/>
<polygon fill="black" stroke="black" points="1072.13,-302.69 1076.63,-293.1 1067.13,-297.79 1072.13,-302.69"/>
</g>
<!-- UnmixedDigis -->
<g id="node31" class="node">
<title>UnmixedDigis</title>
<ellipse fill="none" stroke="lightblue" cx="1592" cy="-250.94" rx="202.88" ry="34.77"/>
<ellipse fill="none" stroke="lightblue" cx="1592" cy="-250.94" rx="206.88" ry="38.78"/>
<ellipse fill="none" stroke="lightblue" cx="1592" cy="-250.94" rx="210.88" ry="42.8"/>
<text text-anchor="start" x="1549" y="-257.74" font-family="Times,serif" font-weight="bold" font-size="14.00">Unmixed Digis</text>
<text text-anchor="start" x="1460" y="-236.74" font-family="Times,serif" font-size="14.00" fill="red">dig.mu2e.X.art, X ∈ [CeMinus, CORSIKA, ...]</text>
</g>
<!-- NomixDigitization&#45;&gt;UnmixedDigis -->
<g id="edge37" class="edge">
<title>NomixDigitization&#45;&gt;UnmixedDigis</title>
<path fill="none" stroke="black" d="M1599,-330.44C1598.26,-322.1 1597.44,-312.96 1596.64,-303.97"/>
<polygon fill="black" stroke="black" points="1600.12,-303.57 1595.74,-293.92 1593.14,-304.19 1600.12,-303.57"/>
</g>
<!-- Reconstruction -->
<g id="node33" class="node">
<title>Reconstruction</title>
<polygon fill="none" stroke="blue" points="1404,-171.3 1286,-171.3 1286,-122.3 1404,-122.3 1404,-171.3"/>
<text text-anchor="start" x="1297" y="-153.6" font-family="Times,serif" font-weight="bold" font-size="14.00"> Reconstruction </text>
<text text-anchor="start" x="1297" y="-132.6" font-family="Times,serif" font-size="14.00" fill="darkgreen">reco/reco.fcl </text>
</g>
<!-- UnmixedDigis&#45;&gt;Reconstruction -->
<g id="edge40" class="edge">
<title>UnmixedDigis&#45;&gt;Reconstruction</title>
<path fill="none" stroke="black" d="M1501.08,-212.34C1471.42,-200.08 1439.07,-186.7 1411.55,-175.32"/>
<polygon fill="black" stroke="black" points="1412.61,-171.97 1402.03,-171.38 1409.93,-178.44 1412.61,-171.97"/>
</g>
<!-- MixedDigis&#45;&gt;Reconstruction -->
<g id="edge39" class="edge">
<title>MixedDigis&#45;&gt;Reconstruction</title>
<path fill="none" stroke="black" d="M1203.2,-211.33C1229.81,-199.4 1258.58,-186.52 1283.2,-175.48"/>
<polygon fill="black" stroke="black" points="1284.72,-178.64 1292.42,-171.35 1281.86,-172.25 1284.72,-178.64"/>
</g>
<!-- Reco -->
<g id="node34" class="node">
<title>Reco</title>
<ellipse fill="none" stroke="lightblue" cx="1345" cy="-42.65" rx="274.22" ry="34.77"/>
<ellipse fill="none" stroke="lightblue" cx="1345" cy="-42.65" rx="278.22" ry="38.78"/>
<ellipse fill="none" stroke="lightblue" cx="1345" cy="-42.65" rx="282.21" ry="42.8"/>
<text text-anchor="start" x="1162" y="-49.45" font-family="Times,serif" font-weight="bold" font-size="14.00">Reconstructed Events (Tracks, CaloClusters, CRVClusters, ...)</text>
<text text-anchor="start" x="1162" y="-28.45" font-family="Times,serif" font-size="14.00" fill="red">mcs.mu2e.X.art, X ∈ [CeMinus, CORSIKA, ...]</text>
</g>
<!-- Reconstruction&#45;&gt;Reco -->
<g id="edge41" class="edge">
<title>Reconstruction&#45;&gt;Reco</title>
<path fill="none" stroke="black" d="M1345,-122.1C1345,-114.14 1345,-104.92 1345,-95.65"/>
<polygon fill="black" stroke="black" points="1348.5,-95.64 1345,-85.64 1341.5,-95.64 1348.5,-95.64"/>
</g>
</g>
</svg>
